<svg version="1.1" id="Layer_1" x="0" y="0" viewBox="0 0 32 32" xmlns="http://www.w3.org/2000/svg"><style>.st1{fill:#fff}</style><circle cx="199.8" cy="200.3" r="36.527" style="fill: rgb(229, 53, 23);" transform="matrix(0.438032, 0, 0, 0.389517, -71.518829, -61.248028)"></circle><path class="st1" d="M 25.458 11.929 L 25.458 9.538 C 25.458 8.661 24.657 7.949 23.671 7.949 L 9.34 7.949 C 8.346 7.949 7.545 8.661 7.545 9.538 L 7.545 11.134 L 5.749 11.134 L 5.749 11.172 C 5.682 11.149 5.606 11.134 5.521 11.134 C 5.15 11.134 4.847 11.404 4.847 11.734 L 4.847 14.523 C 4.847 14.853 5.15 15.123 5.521 15.123 C 5.892 15.123 6.196 14.853 6.196 14.523 L 6.196 12.334 L 7.537 12.334 L 7.537 23.878 C 7.537 24.756 8.337 25.468 9.332 25.468 L 9.332 26.27 C 9.332 26.712 9.728 27.064 10.225 27.064 L 11.127 27.064 C 11.625 27.064 12.02 26.704 12.02 26.27 L 12.02 25.475 L 20.981 25.475 L 20.981 26.27 C 20.981 26.712 21.378 27.064 21.876 27.064 L 22.77 27.064 C 23.266 27.064 23.662 26.704 23.662 26.27 L 23.662 25.475 C 24.649 25.475 25.45 24.763 25.45 23.886 L 25.45 15.917 C 25.947 15.917 26.344 15.557 26.344 15.123 L 26.344 12.731 C 26.352 12.288 25.947 11.929 25.458 11.929 M 8.918 9.545 C 8.918 9.343 9.104 9.178 9.332 9.178 L 10.672 9.178 L 10.672 11.142 L 8.911 11.142 L 8.911 9.545 L 8.918 9.545 Z M 17.391 16.315 L 17.391 17.507 L 18.959 17.507 L 18.959 18.646 L 8.952 18.646 L 8.952 12.386 L 24.051 12.386 L 24.051 18.646 L 20.307 18.646 L 20.307 17.507 L 21.876 17.507 L 21.876 16.315 L 17.391 16.315 Z M 24.076 23.878 C 24.076 24.081 23.89 24.246 23.662 24.246 L 9.332 24.246 C 9.104 24.246 8.918 24.081 8.918 23.878 L 8.918 19.898 L 24.084 19.898 L 24.084 23.878 L 24.076 23.878 Z M 24.076 11.134 L 13.361 11.134 L 13.361 9.171 L 23.662 9.171 C 23.89 9.171 24.076 9.336 24.076 9.538 L 24.076 11.134 Z" style=""></path><path class="st1" d="M 11.127 23.084 L 12.915 23.084 C 13.411 23.084 13.808 22.724 13.808 22.289 C 13.808 21.846 13.403 21.494 12.915 21.494 L 11.127 21.494 C 10.63 21.494 10.234 21.855 10.234 22.289 C 10.225 22.724 10.63 23.084 11.127 23.084 M 20.08 23.084 L 21.867 23.084 C 22.364 23.084 22.761 22.724 22.761 22.289 C 22.761 21.846 22.364 21.494 21.867 21.494 L 20.08 21.494 C 19.583 21.494 19.186 21.855 19.186 22.289 C 19.186 22.724 19.583 23.084 20.08 23.084" style=""></path></svg>