<svg data-name="Capa 2" viewBox="0 0 201.47 70.99" xmlns="http://www.w3.org/2000/svg"><g data-name="Capa 1"><path d="M.58 48.95s-5.86-20.36 19.65-37.92C35.99.18 60.77-3.25 76.19 3.37 90.3 9.44 97.09 20.96 92.4 36.38 87.72 51.8 63.85 70.99 39.64 70.99S7.66 57.97 7.66 46.43c0-21.93 26.27-33.8 26.27-33.8C.24 22.8.58 48.95.58 48.95" style="fill:#e30613"/><path d="M23.41 30.87h4.62l-3.84 13.71h5.74l3.84-13.71h4.61l1.26-4.51H24.68zm13.04 13.71h5.46l3.13-11.18c.29-1.03.35-1.31.58-2.45-.1 1.9-.08 1.93-.1 3.4l-.05 10.23h4.27l6.04-10.79c.73-1.32.85-1.58 1.55-2.94-.54 1.54-.65 1.88-1.06 3.22l-2.94 10.51h5.47l5.09-18.19h-8.22l-4.24 7.8c-.9 1.76-1.14 2.22-2.1 4.46.2-1.65.24-2.06.34-3.86l.11-8.4h-8.22l-5.09 18.19Zm25.27 0h11.13c1.43-.05 3.33-.11 5.08-1.5 1.19-.93 2-2.34 2.37-3.71.25-.9.41-2.09-.34-3.09-.52-.72-1.14-.9-1.83-1.11.67-.28 1.19-.49 1.82-.98.92-.72 1.8-1.85 2.18-3.19.33-1.16.25-2.37-.36-3.14-.99-1.34-3.08-1.42-4.2-1.47H66.8l-5.09 18.19Zm13.06-14.35c.51.02 1.73.08 1.32 1.58-.43 1.52-1.77 1.52-2.31 1.52h-3.2l.87-3.09h3.32Zm-1.77 6.91c.53.02 2.06.1 1.58 1.8-.13.46-.43.9-.8 1.18-.57.49-1.12.51-1.65.55h-3.61l.99-3.53H73Z" style="fill:#fff"/><path d="M107.79 16.23h-3.19v-1.96h8.71v1.96h-3.18v8.66h-2.34zm5.25.97h2.01v1.43h.03c.39-.97 1.43-1.64 2.46-1.64.15 0 .33.03.46.07v1.96c-.19-.04-.51-.08-.76-.08-1.55 0-2.08 1.12-2.08 2.47v3.47h-2.11v-7.7Zm5.67 2.37c.12-1.98 1.89-2.58 3.62-2.58 1.53 0 3.38.34 3.38 2.19v4c0 .7.07 1.4.27 1.71h-2.14c-.07-.24-.13-.49-.15-.74-.67.7-1.65.95-2.59.95-1.46 0-2.62-.73-2.62-2.31 0-1.74 1.31-2.16 2.62-2.34 1.3-.19 2.5-.15 2.5-1.01 0-.91-.62-1.04-1.37-1.04-.8 0-1.33.33-1.4 1.16h-2.11Zm4.88 1.56c-.36.31-1.1.33-1.76.45-.65.14-1.25.36-1.25 1.13s.61.98 1.3.98c1.65 0 1.71-1.31 1.71-1.77v-.79Zm3.69-3.93h2.01v1.07h.05c.54-.86 1.46-1.28 2.35-1.28 2.25 0 2.82 1.26 2.82 3.17v4.73h-2.11v-4.35c0-1.27-.37-1.89-1.36-1.89-1.15 0-1.64.64-1.64 2.2v4.03h-2.11v-7.7Zm10.36 5.19c.01.92.79 1.3 1.62 1.3.61 0 1.38-.24 1.38-.98 0-.64-.88-.86-2.4-1.19-1.22-.27-2.44-.7-2.44-2.05 0-1.96 1.7-2.47 3.35-2.47s3.23.57 3.39 2.46h-2.01c-.06-.82-.69-1.04-1.45-1.04-.48 0-1.17.09-1.17.71 0 .76 1.19.86 2.4 1.15 1.24.28 2.44.73 2.44 2.16 0 2.03-1.76 2.68-3.51 2.68s-3.53-.67-3.62-2.71h2.01Zm6.32-5.19h2.01v.98h.03c.51-.82 1.34-1.19 2.29-1.19 2.41 0 3.5 1.95 3.5 4.14 0 2.05-1.13 3.97-3.38 3.97-.92 0-1.8-.4-2.31-1.16h-.03v3.66h-2.11V17.19Zm5.72 3.87c0-1.22-.49-2.49-1.85-2.49S146 19.82 146 21.07s.48 2.44 1.85 2.44 1.83-1.19 1.83-2.44m6.99-4.08c2.43 0 3.99 1.61 3.99 4.06s-1.56 4.05-3.99 4.05-3.97-1.61-3.97-4.05 1.56-4.06 3.97-4.06m0 6.52c1.44 0 1.88-1.24 1.88-2.46s-.43-2.47-1.88-2.47-1.86 1.24-1.86 2.47.43 2.46 1.86 2.46m5.25-6.31h2.01v1.43h.03c.39-.97 1.43-1.64 2.46-1.64.15 0 .33.03.46.07v1.96c-.19-.04-.51-.08-.76-.08-1.55 0-2.08 1.12-2.08 2.47v3.47h-2.11v-7.7Zm8.77 0h1.55v1.41h-1.55v3.81c0 .71.18.89.89.89.23 0 .43-.02.66-.06v1.65c-.36.06-.82.07-1.23.07-1.3 0-2.43-.3-2.43-1.83V18.6h-1.28v-1.41h1.28v-2.31h2.11v2.31Zm4.19 5.19c.01.92.79 1.3 1.62 1.3.61 0 1.38-.24 1.38-.98 0-.64-.88-.86-2.4-1.19-1.22-.27-2.44-.7-2.44-2.05 0-1.96 1.7-2.47 3.35-2.47s3.23.57 3.39 2.46h-2.01c-.06-.82-.69-1.04-1.45-1.04-.48 0-1.17.09-1.17.71 0 .76 1.19.86 2.4 1.15 1.24.28 2.44.73 2.44 2.16 0 2.03-1.76 2.68-3.51 2.68s-3.53-.67-3.62-2.71h2.01Zm-69.44 8h3.29l2.48 7.31h.03l2.36-7.31h3.29v10.63h-2.19v-7.53h-.03l-2.61 7.53h-1.8l-2.6-7.46h-.03v7.46h-2.19zm14.93 7.3c.06 1.34.72 1.95 1.89 1.95.85 0 1.53-.52 1.67-1h1.86c-.6 1.82-1.86 2.59-3.6 2.59-2.43 0-3.93-1.67-3.93-4.05s1.59-4.06 3.93-4.06c2.62 0 3.88 2.2 3.74 4.57h-5.55Zm3.44-1.34c-.19-1.07-.65-1.64-1.68-1.64-1.34 0-1.73 1.04-1.76 1.64h3.44Zm5.85-3.03h1.55v1.41h-1.55v3.81c0 .72.18.89.89.89.23 0 .43-.01.66-.06v1.65c-.36.06-.82.07-1.23.07-1.3 0-2.43-.3-2.43-1.83v-4.54h-1.28v-1.41h1.28V31h2.11v2.31Zm2.61 0h2.01v1.43h.03c.39-.97 1.43-1.64 2.46-1.64.15 0 .33.03.46.07v1.96c-.19-.04-.51-.08-.76-.08-1.55 0-2.09 1.12-2.09 2.47V41h-2.11v-7.7Zm9.42-.2c2.43 0 3.99 1.61 3.99 4.06s-1.56 4.05-3.99 4.05-3.98-1.61-3.98-4.05 1.56-4.06 3.98-4.06m0 6.52c1.44 0 1.88-1.23 1.88-2.45s-.43-2.47-1.88-2.47-1.86 1.24-1.86 2.47.43 2.45 1.86 2.45m5.24-6.32h2.01v.98h.03c.51-.82 1.34-1.19 2.29-1.19 2.41 0 3.5 1.95 3.5 4.14 0 2.05-1.13 3.97-3.38 3.97-.92 0-1.8-.4-2.31-1.16h-.03v3.66h-2.11V33.31Zm5.72 3.87c0-1.22-.49-2.48-1.85-2.48s-1.83 1.24-1.83 2.48.48 2.44 1.85 2.44 1.83-1.19 1.83-2.44m6.99-4.07c2.43 0 3.99 1.61 3.99 4.06s-1.56 4.05-3.99 4.05-3.97-1.61-3.97-4.05 1.56-4.06 3.97-4.06m0 6.52c1.44 0 1.88-1.23 1.88-2.45s-.43-2.47-1.88-2.47-1.86 1.24-1.86 2.47.43 2.45 1.86 2.45m5.27-9.25h2.11v10.63h-2.11zm5.82 1.74h-2.11v-1.74h2.11v1.74zm-2.11 1.19h2.11v7.7h-2.11v-7.7zm6.32 0h1.55v1.41h-1.55v3.81c0 .72.18.89.89.89.23 0 .43-.01.65-.06v1.65c-.36.06-.82.07-1.24.07-1.29 0-2.43-.3-2.43-1.83v-4.54h-1.28v-1.41h1.28V31h2.11v2.31Zm2.48 2.37c.12-1.98 1.89-2.57 3.62-2.57 1.53 0 3.38.34 3.38 2.19v4c0 .7.07 1.4.27 1.71h-2.14c-.07-.24-.13-.49-.15-.74-.67.7-1.65.95-2.59.95-1.46 0-2.62-.73-2.62-2.31 0-1.74 1.31-2.16 2.62-2.34 1.3-.19 2.5-.15 2.5-1.01 0-.91-.63-1.04-1.37-1.04-.8 0-1.33.33-1.4 1.16h-2.11Zm4.88 1.56c-.36.31-1.1.33-1.76.45-.65.13-1.25.36-1.25 1.13s.61.98 1.3.98c1.65 0 1.71-1.31 1.71-1.77v-.79Zm3.69-3.93H188v1.07h.05c.54-.86 1.46-1.28 2.35-1.28 2.25 0 2.82 1.26 2.82 3.17v4.74h-2.11v-4.35c0-1.27-.38-1.89-1.36-1.89-1.15 0-1.64.64-1.64 2.2v4.03H186v-7.7Zm10.36 5.2c.01.92.79 1.3 1.62 1.3.61 0 1.38-.24 1.38-.98 0-.64-.88-.86-2.4-1.19-1.22-.27-2.44-.7-2.44-2.05 0-1.97 1.7-2.47 3.35-2.47s3.23.57 3.39 2.46h-2.01c-.06-.82-.69-1.04-1.45-1.04-.47 0-1.17.09-1.17.71 0 .76 1.19.86 2.4 1.15 1.24.28 2.44.73 2.44 2.16 0 2.02-1.76 2.68-3.51 2.68s-3.53-.67-3.62-2.71h2.01Zm-85.64 17.64h-.03c-.49.83-1.35 1.19-2.34 1.19-2.32 0-3.45-1.99-3.45-4.12s1.15-3.99 3.41-3.99c.91 0 1.8.39 2.28 1.15h.03v-3.87h2.11v10.63h-2.01v-.98Zm-1.85-5.33c-1.39 0-1.86 1.19-1.86 2.46s.55 2.47 1.86 2.47c1.4 0 1.82-1.22 1.82-2.49s-.45-2.44-1.82-2.44m7.14 2.98c.06 1.34.72 1.95 1.89 1.95.85 0 1.53-.52 1.67-1h1.86c-.59 1.82-1.86 2.59-3.6 2.59-2.43 0-3.93-1.67-3.93-4.05s1.59-4.07 3.93-4.07c2.62 0 3.89 2.2 3.74 4.57h-5.55Zm3.44-1.34c-.19-1.07-.66-1.64-1.68-1.64-1.34 0-1.73 1.04-1.76 1.64h3.44Zm7.43-5.95h5c2.02 0 3.39.65 3.39 2.63 0 1.04-.52 1.77-1.44 2.22 1.3.37 1.95 1.37 1.95 2.69 0 2.16-1.83 3.08-3.75 3.08h-5.15V46.51Zm2.34 4.3h2.37c.82 0 1.43-.37 1.43-1.26 0-1.01-.77-1.22-1.61-1.22h-2.19v2.49Zm0 4.51h2.5c.92 0 1.73-.3 1.73-1.4s-.68-1.52-1.68-1.52h-2.55v2.92Zm7.71-3.51c.12-1.98 1.89-2.58 3.62-2.58 1.53 0 3.38.34 3.38 2.19v4.01c0 .7.08 1.4.27 1.71h-2.14c-.07-.24-.13-.49-.15-.74-.67.7-1.65.95-2.59.95-1.46 0-2.62-.73-2.62-2.31 0-1.74 1.31-2.16 2.62-2.34 1.29-.2 2.5-.15 2.5-1.01 0-.91-.62-1.04-1.37-1.04-.8 0-1.32.33-1.4 1.16h-2.11Zm4.88 1.56c-.36.31-1.1.33-1.76.45-.65.14-1.25.36-1.25 1.13s.61.98 1.3.98c1.65 0 1.71-1.31 1.71-1.77v-.79Zm3.69-3.93h2.01v1.43h.03c.39-.97 1.43-1.64 2.46-1.64.15 0 .33.03.46.08v1.96c-.19-.04-.51-.07-.76-.07-1.55 0-2.08 1.12-2.08 2.47v3.47h-2.11v-7.7Zm10.92 2.71c-.13-.86-.68-1.33-1.56-1.33-1.36 0-1.8 1.37-1.8 2.5s.43 2.43 1.76 2.43c.98 0 1.55-.63 1.68-1.56h2.04c-.27 2.04-1.68 3.16-3.71 3.16-2.32 0-3.89-1.64-3.89-3.95s1.43-4.17 3.93-4.17c1.82 0 3.48.95 3.62 2.92h-2.07Zm4.97 1.65c.06 1.34.72 1.95 1.89 1.95.85 0 1.53-.52 1.67-1h1.86c-.6 1.82-1.86 2.59-3.6 2.59-2.43 0-3.93-1.67-3.93-4.05s1.59-4.07 3.93-4.07c2.62 0 3.89 2.2 3.74 4.57h-5.55Zm3.44-1.34c-.19-1.07-.65-1.64-1.68-1.64-1.34 0-1.73 1.04-1.76 1.64h3.44Zm3.29-5.95h2.11v10.63h-2.11zm7.36 2.72c2.43 0 3.99 1.61 3.99 4.06s-1.56 4.05-3.99 4.05-3.98-1.61-3.98-4.05 1.56-4.06 3.98-4.06m0 6.52c1.44 0 1.88-1.23 1.88-2.46s-.43-2.47-1.88-2.47-1.86 1.24-1.86 2.47.43 2.46 1.86 2.46m5.24-6.31h2.01v1.07h.04c.54-.86 1.46-1.28 2.35-1.28 2.25 0 2.81 1.27 2.81 3.17v4.73h-2.11v-4.35c0-1.27-.37-1.89-1.35-1.89-1.15 0-1.64.64-1.64 2.2v4.03h-2.11v-7.7Zm8.63 2.37c.12-1.98 1.89-2.58 3.62-2.58 1.53 0 3.38.34 3.38 2.19v4.01c0 .7.07 1.4.27 1.71h-2.14c-.08-.24-.13-.49-.15-.74-.67.7-1.65.95-2.59.95-1.46 0-2.62-.73-2.62-2.31 0-1.74 1.31-2.16 2.62-2.34 1.3-.2 2.5-.15 2.5-1.01 0-.91-.63-1.04-1.37-1.04-.8 0-1.32.33-1.4 1.16h-2.11Zm4.88 1.56c-.36.31-1.1.33-1.76.45-.66.14-1.25.36-1.25 1.13s.61.98 1.29.98c1.65 0 1.71-1.31 1.71-1.77v-.79Z"/></g></svg>