<?xml version="1.0" encoding="UTF-8"?>
<svg xmlns="http://www.w3.org/2000/svg" xmlns:xlink="http://www.w3.org/1999/xlink" width="24px" height="24px" viewBox="0 0 24 24" version="1.1">
<g id="surface1">
<path style=" stroke:none;fill-rule:nonzero;fill:rgb(89.019608%,10.588235%,11.764706%);fill-opacity:1;" d="M 23.601562 11.683594 C 23.601562 18.136719 18.316406 23.367188 11.800781 23.367188 C 5.28125 23.367188 0 18.136719 0 11.683594 C 0 5.230469 5.28125 0 11.800781 0 C 18.316406 0 23.601562 5.230469 23.601562 11.683594 Z M 23.601562 11.683594 "/>
<path style=" stroke:none;fill-rule:nonzero;fill:rgb(100%,100%,100%);fill-opacity:1;" d="M 18.476562 14.28125 C 18.476562 15.859375 17.945312 17.117188 16.886719 18.054688 C 16.125 18.726562 14.960938 19.0625 13.390625 19.0625 L 6.878906 19.0625 L 6.878906 4.34375 L 13.320312 4.34375 C 14.667969 4.34375 15.792969 4.707031 16.6875 5.429688 C 17.589844 6.144531 18.039062 7.066406 18.039062 8.199219 C 18.039062 9.453125 17.585938 10.460938 16.671875 11.226562 C 17.136719 11.453125 17.539062 11.828125 17.886719 12.347656 C 18.277344 12.941406 18.480469 13.605469 18.476562 14.28125 M 15.003906 8.542969 C 15.003906 7.292969 14.394531 6.671875 13.179688 6.671875 L 9.847656 6.671875 L 9.847656 10.316406 L 13.023438 10.316406 C 14.34375 10.316406 15.003906 9.726562 15.003906 8.542969 M 15.367188 14.476562 C 15.367188 13.253906 14.652344 12.644531 13.226562 12.644531 L 9.847656 12.644531 L 9.847656 16.734375 L 13.15625 16.734375 C 14.628906 16.734375 15.367188 15.984375 15.367188 14.476562 "/>
<path style="fill:none;stroke-width:3.5;stroke-linecap:butt;stroke-linejoin:miter;stroke:rgb(100%,100%,100%);stroke-opacity:1;stroke-miterlimit:4;" d="M 26.21875 17.770833 L 26.21875 27.614583 L 34.770833 27.614583 C 37.46875 27.614583 40.020833 26.5625 40.020833 22.770833 C 40.020833 19.708333 38.135417 17.770833 34.770833 17.770833 Z M 26.21875 33.739583 L 26.21875 44.635417 L 34.770833 44.635417 C 37.666667 44.635417 40.90625 43.635417 40.90625 38.5 C 40.90625 35.21875 37.895833 33.739583 34.770833 33.739583 L 26.21875 33.739583 " transform="matrix(0.375,0,0,0.375,0,0)"/>
</g>
</svg>
