<svg version="1.1" id="Layer_1" xmlns="http://www.w3.org/2000/svg" x="0" y="0" viewBox="0 0 400 400" xml:space="preserve"><style>.st1{fill:#fff}</style><circle cx="199.8" cy="200.3" r="189.8" style="fill:#e53517"/><path class="st1" d="M312 135.7v-31.9c0-11.7-9.5-21.2-21.2-21.2h-170c-11.8 0-21.3 9.5-21.3 21.2v21.3H78.2v.5c-.8-.3-1.7-.5-2.7-.5-4.4 0-8 3.6-8 8v37.2c0 4.4 3.6 8 8 8s8-3.6 8-8v-29.2h15.9v154c0 11.7 9.5 21.2 21.3 21.2V327c0 5.9 4.7 10.6 10.6 10.6H142c5.9 0 10.6-4.8 10.6-10.6v-10.6h106.3V327c0 5.9 4.7 10.6 10.6 10.6h10.6c5.9 0 10.6-4.8 10.6-10.6v-10.6c11.7 0 21.2-9.5 21.2-21.2V188.9c5.9 0 10.6-4.8 10.6-10.6v-31.9c.1-5.9-4.7-10.7-10.5-10.7m-196.2-31.8c0-2.7 2.2-4.9 4.9-4.9h15.9v26.2h-20.9v-21.3zm100.5 90.3v15.9h18.6v15.2H116.2v-83.5h179.1v83.5h-44.4v-15.2h18.6v-15.9h-53.2zm79.3 100.9c0 2.7-2.2 4.9-4.9 4.9h-170c-2.7 0-4.9-2.2-4.9-4.9V242h179.9v53.1zm0-170H168.5V98.9h122.2c2.7 0 4.9 2.2 4.9 4.9v21.3z"/><path class="st1" d="M142 284.5h21.2c5.9 0 10.6-4.8 10.6-10.6 0-5.9-4.8-10.6-10.6-10.6H142c-5.9 0-10.6 4.8-10.6 10.6-.1 5.8 4.7 10.6 10.6 10.6M248.2 284.5h21.2c5.9 0 10.6-4.8 10.6-10.6 0-5.9-4.7-10.6-10.6-10.6h-21.2c-5.9 0-10.6 4.8-10.6 10.6s4.7 10.6 10.6 10.6"/></svg>