<svg xmlns="http://www.w3.org/2000/svg" width="177.593" height="177.593" viewBox="0 0 46.988 46.988"><defs><clipPath id="a" clipPathUnits="userSpaceOnUse"><path d="M0 841.89h595.276V0H0z"/></clipPath></defs><g clip-path="url(#a)" transform="matrix(.35278 0 0 -.35278 -69.474 253.745)"><path d="M286.332 620.787h133.195V487.592H286.332z" style="fill:#f47216;fill-opacity:1;fill-rule:nonzero;stroke:none" transform="translate(-89.399 98.49)"/><path d="M0 0h23.918v27.072H36.64c9.461 0 10.113-7.719 10.765-15.112.326-4.023.761-8.047 1.957-11.96h23.921C71.108 3.588 71 12.829 70.673 16.635c-.87 9.678-4.893 16.853-11.416 19.353 7.937 2.937 11.633 11.418 11.633 19.463 0 14.679-11.743 22.182-25.334 22.182H0zm24.463 59.148h11.201c9.133 0 11.85-2.826 11.85-7.719 0-6.96-6.088-7.721-10.546-7.721H24.463z" style="fill:#fff;fill-opacity:1;fill-rule:nonzero;stroke:none" transform="translate(252.692 618.556)"/></g></svg>